# This file uses centimeters as units for non-parametric coordinates.

mtllib picture.mtl
g default
v -11.794612 3.633182 14.378235
v -11.403915 3.451539 14.408922
v -11.162223 3.269894 14.439607
v -10.771526 3.088250 14.470293
v -10.529835 2.906606 14.500978
v -10.213640 2.724961 14.531664
v -9.897446 2.543317 14.562349
v -9.581252 2.361672 14.593036
v -9.265057 2.180028 14.623721
v -8.948863 1.998384 14.654408
v -11.864197 3.475919 14.164333
v -11.548002 3.294275 14.195020
v -11.231808 3.112631 14.225705
v -10.915613 2.930986 14.256392
v -10.599419 2.749342 14.287077
v -10.283225 2.567698 14.317762
v -9.967031 2.386053 14.348448
v -9.650836 2.204409 14.379134
v -9.334642 2.022765 14.409821
v -9.018448 1.841121 14.440506
v -11.933781 3.318657 13.950434
v -11.617586 3.137012 13.981119
v -11.301392 2.955368 14.011805
v -10.985198 2.773724 14.042490
v -10.669003 2.592080 14.073176
v -10.352809 2.410436 14.103862
v -10.036615 2.228791 14.134548
v -9.720420 2.047147 14.165234
v -9.404226 1.865503 14.195919
v -9.088032 1.683858 14.226605
v -12.003365 3.161393 13.736532
v -11.687171 2.979750 13.767219
v -11.370977 2.798105 13.797904
v -11.054782 2.616461 13.828590
v -10.738588 2.434816 13.859276
v -10.422394 2.253172 13.889961
v -10.106200 2.071528 13.920647
v -9.790005 1.889883 13.951333
v -9.473811 1.708239 13.982019
v -9.157616 1.526595 14.012705
v -12.072950 3.004130 13.522631
v -11.756756 2.822486 13.553317
v -11.440561 2.640842 13.584002
v -11.124367 2.459197 13.614689
v -10.808173 2.277553 13.645374
v -10.491978 2.095909 13.676060
v -10.175784 1.914265 13.706745
v -9.859590 1.732620 13.737432
v -9.543395 1.550976 13.768118
v -9.227201 1.369332 13.798803
v -12.142534 2.846867 13.308730
v -11.826340 2.665223 13.339416
v -11.510146 2.483579 13.370102
v -11.193951 2.301935 13.400787
v -10.877757 2.120291 13.431473
v -10.561563 1.938646 13.462159
v -10.245368 1.757002 13.492845
v -9.929174 1.575357 13.523531
v -9.612980 1.393713 13.554216
v -9.296786 1.212069 13.584902
v -12.212119 2.689604 13.094830
v -11.895924 2.507960 13.125515
v -11.579730 2.326316 13.156200
v -11.263536 2.144671 13.186887
v -10.947341 1.963027 13.217573
v -10.631147 1.781383 13.248259
v -10.314953 1.599738 13.278944
v -9.998758 1.418094 13.309629
v -9.682564 1.236450 13.340316
v -9.366370 1.054806 13.371001
v -12.281703 2.532341 12.880928
v -11.965509 2.350697 12.911613
v -11.649315 2.169053 12.942299
v -11.333120 1.987408 12.972985
v -11.016926 1.805764 13.003672
v -10.700732 1.624120 13.034357
v -10.384537 1.442476 13.065042
v -10.068343 1.260831 13.095728
v -9.752149 1.079187 13.126414
v -9.435955 0.897543 13.157100
v -12.351288 2.375078 12.667027
v -12.035093 2.193434 12.697713
v -11.718899 2.011790 12.728399
v -11.402704 1.830145 12.759085
v -11.086510 1.648501 12.789770
v -10.770316 1.466857 12.820457
v -10.454122 1.285212 12.851142
v -10.137927 1.103568 12.881828
v -9.821733 0.921924 12.912514
v -9.505539 0.740280 12.943199
v -12.420872 2.217815 12.453127
v -12.104678 2.036171 12.483812
v -11.788483 1.854527 12.514498
v -11.472289 1.672882 12.545184
v -11.156095 1.491238 12.575871
v -10.839900 1.309594 12.606556
v -10.523706 1.127950 12.637241
v -10.207512 0.946305 12.667927
v -9.891318 0.764661 12.698613
v -9.575124 0.583017 12.729299
v -12.490456 2.060552 12.239225
v -12.174262 1.878908 12.269912
v -11.858068 1.697264 12.300597
v -11.541873 1.515620 12.331284
v -11.225679 1.333976 12.361969
v -10.909485 1.152331 12.392654
v -10.593291 0.970687 12.423340
v -10.277096 0.789042 12.454026
v -9.960902 0.607398 12.484713
v -9.644708 0.425754 12.515398
v -12.560041 1.903290 12.025326
v -12.243846 1.721645 12.056011
v -11.927652 1.540001 12.086697
v -11.611458 1.358357 12.117382
v -11.295264 1.176713 12.148068
v -10.979069 0.995068 12.178754
v -10.662875 0.813424 12.209440
v -10.346680 0.631779 12.240126
v -10.030486 0.450136 12.270811
v -9.714292 0.268491 12.301497
v -12.629625 1.746026 11.811424
v -12.313431 1.564382 11.842110
v -11.997237 1.382738 11.872795
v -11.681042 1.201093 11.903481
v -11.364848 1.019449 11.934167
v -11.048654 0.837805 11.964852
v -10.732459 0.656161 11.995539
v -10.416265 0.474516 12.026224
v -10.100071 0.292872 12.056910
v -9.783877 0.111228 12.087596
vt 0.000000 0.000000
vt 0.111111 0.000000
vt 0.111111 0.083333
vt 0.000000 0.083333
vt 0.222222 0.000000
vt 0.222222 0.083333
vt 0.333333 0.000000
vt 0.333333 0.083333
vt 0.444444 0.000000
vt 0.444444 0.083333
vt 0.555556 0.000000
vt 0.555556 0.083333
vt 0.666667 0.000000
vt 0.666667 0.083333
vt 0.777778 0.000000
vt 0.777778 0.083333
vt 0.888889 0.000000
vt 0.888889 0.083333
vt 1.000000 0.000000
vt 1.000000 0.083333
vt 0.111111 0.166667
vt 0.000000 0.166667
vt 0.222222 0.166667
vt 0.333333 0.166667
vt 0.444444 0.166667
vt 0.555556 0.166667
vt 0.666667 0.166667
vt 0.777778 0.166667
vt 0.888889 0.166667
vt 1.000000 0.166667
vt 0.111111 0.250000
vt 0.000000 0.250000
vt 0.222222 0.250000
vt 0.333333 0.250000
vt 0.444444 0.250000
vt 0.555556 0.250000
vt 0.666667 0.250000
vt 0.777778 0.250000
vt 0.888889 0.250000
vt 1.000000 0.250000
vt 0.111111 0.333333
vt 0.000000 0.333333
vt 0.222222 0.333333
vt 0.333333 0.333333
vt 0.444444 0.333333
vt 0.555556 0.333333
vt 0.666667 0.333333
vt 0.777778 0.333333
vt 0.888889 0.333333
vt 1.000000 0.333333
vt 0.111111 0.416667
vt 0.000000 0.416667
vt 0.222222 0.416667
vt 0.333333 0.416667
vt 0.444444 0.416667
vt 0.555556 0.416667
vt 0.666667 0.416667
vt 0.777778 0.416667
vt 0.888889 0.416667
vt 1.000000 0.416667
vt 0.111111 0.500000
vt 0.000000 0.500000
vt 0.222222 0.500000
vt 0.333333 0.500000
vt 0.444444 0.500000
vt 0.555556 0.500000
vt 0.666667 0.500000
vt 0.777778 0.500000
vt 0.888889 0.500000
vt 1.000000 0.500000
vt 0.111111 0.583333
vt 0.000000 0.583333
vt 0.222222 0.583333
vt 0.333333 0.583333
vt 0.444444 0.583333
vt 0.555556 0.583333
vt 0.666667 0.583333
vt 0.777778 0.583333
vt 0.888889 0.583333
vt 1.000000 0.583333
vt 0.111111 0.666667
vt 0.000000 0.666667
vt 0.222222 0.666667
vt 0.333333 0.666667
vt 0.444444 0.666667
vt 0.555556 0.666667
vt 0.666667 0.666667
vt 0.777778 0.666667
vt 0.888889 0.666667
vt 1.000000 0.666667
vt 0.111111 0.750000
vt 0.000000 0.750000
vt 0.222222 0.750000
vt 0.333333 0.750000
vt 0.444444 0.750000
vt 0.555556 0.750000
vt 0.666667 0.750000
vt 0.777778 0.750000
vt 0.888889 0.750000
vt 1.000000 0.750000
vt 0.111111 0.833333
vt 0.000000 0.833333
vt 0.222222 0.833333
vt 0.333333 0.833333
vt 0.444444 0.833333
vt 0.555556 0.833333
vt 0.666667 0.833333
vt 0.777778 0.833333
vt 0.888889 0.833333
vt 1.000000 0.833333
vt 0.111111 0.916667
vt 0.000000 0.916667
vt 0.222222 0.916667
vt 0.333333 0.916667
vt 0.444444 0.916667
vt 0.555556 0.916667
vt 0.666667 0.916667
vt 0.777778 0.916667
vt 0.888889 0.916667
vt 1.000000 0.916667
vt 0.111111 1.000000
vt 0.000000 1.000000
vt 0.222222 1.000000
vt 0.333333 1.000000
vt 0.444444 1.000000
vt 0.555556 1.000000
vt 0.666667 1.000000
vt 0.777778 1.000000
vt 0.888889 1.000000
vt 1.000000 1.000000
vn 0.386652 0.640206 -0.663805
vn 0.424588 0.615140 -0.664324
vn 0.424852 0.636817 -0.643401
vn 0.409578 0.646171 -0.643979
vn 0.419951 0.618303 -0.664336
vn 0.427362 0.635252 -0.643285
vn 0.424585 0.615140 -0.664327
vn 0.424852 0.636818 -0.643401
vn 0.446766 0.622442 -0.642625
vn 0.440722 0.637895 -0.631549
vn 0.434899 0.652144 -0.620943
vn 0.434898 0.652145 -0.620943
vn 0.434898 0.652145 -0.620943
vn 0.434897 0.652145 -0.620944
vn 0.434897 0.652145 -0.620944
vn 0.434898 0.652145 -0.620943
vn 0.434898 0.652144 -0.620944
vn 0.434900 0.652145 -0.620942
vn 0.434899 0.652144 -0.620944
vn 0.434900 0.652144 -0.620942
vn 0.434897 0.652145 -0.620944
vn 0.434898 0.652144 -0.620945
vn 0.434896 0.652145 -0.620944
vn 0.434898 0.652144 -0.620944
vn 0.434898 0.652145 -0.620944
vn 0.434898 0.652145 -0.620944
vn 0.434898 0.652144 -0.620944
vn 0.434898 0.652144 -0.620944
vn 0.434899 0.652144 -0.620944
vn 0.434900 0.652144 -0.620943
vn 0.434898 0.652144 -0.620944
vn 0.434899 0.652144 -0.620944
vn 0.434898 0.652144 -0.620945
vn 0.434898 0.652144 -0.620945
vn 0.434898 0.652144 -0.620944
vn 0.434899 0.652144 -0.620944
vn 0.434899 0.652144 -0.620943
vn 0.434898 0.652144 -0.620944
vn 0.434897 0.652144 -0.620945
vn 0.434897 0.652144 -0.620945
vn 0.434900 0.652144 -0.620943
vn 0.434900 0.652145 -0.620943
vn 0.434899 0.652144 -0.620943
vn 0.434898 0.652145 -0.620943
vn 0.434899 0.652145 -0.620942
vn 0.434899 0.652145 -0.620943
vn 0.434898 0.652145 -0.620943
vn 0.434899 0.652145 -0.620943
vn 0.434898 0.652145 -0.620943
vn 0.434898 0.652146 -0.620943
vn 0.434899 0.652145 -0.620943
vn 0.434899 0.652145 -0.620943
vn 0.434899 0.652145 -0.620943
vn 0.434898 0.652145 -0.620944
vn 0.434898 0.652144 -0.620944
vn 0.434898 0.652144 -0.620944
vn 0.434898 0.652144 -0.620944
vn 0.434899 0.652145 -0.620943
vn 0.434898 0.652145 -0.620943
vn 0.434899 0.652145 -0.620943
vn 0.434897 0.652146 -0.620944
vn 0.434897 0.652145 -0.620943
vn 0.434898 0.652145 -0.620943
vn 0.434899 0.652144 -0.620943
vn 0.434898 0.652144 -0.620944
vn 0.434898 0.652145 -0.620944
vn 0.434897 0.652145 -0.620944
vn 0.434898 0.652145 -0.620943
vn 0.434899 0.652145 -0.620943
vn 0.434898 0.652144 -0.620944
vn 0.434899 0.652144 -0.620944
vn 0.434898 0.652145 -0.620944
vn 0.434899 0.652144 -0.620944
vn 0.434899 0.652144 -0.620943
vn 0.434899 0.652145 -0.620943
vn 0.434899 0.652145 -0.620943
vn 0.434898 0.652144 -0.620944
vn 0.434898 0.652144 -0.620944
vn 0.434898 0.652144 -0.620944
vn 0.434898 0.652145 -0.620944
vn 0.434900 0.652143 -0.620944
vn 0.434900 0.652143 -0.620944
vn 0.434898 0.652144 -0.620944
vn 0.434897 0.652144 -0.620945
vn 0.434898 0.652145 -0.620944
vn 0.434899 0.652144 -0.620943
vn 0.434899 0.652144 -0.620944
vn 0.434898 0.652144 -0.620944
vn 0.434898 0.652144 -0.620944
vn 0.434898 0.652144 -0.620944
vn 0.434899 0.652144 -0.620943
vn 0.434902 0.652144 -0.620942
vn 0.434898 0.652145 -0.620944
vn 0.434898 0.652145 -0.620944
vn 0.434898 0.652145 -0.620944
vn 0.434900 0.652145 -0.620943
vn 0.434899 0.652145 -0.620943
vn 0.434898 0.652145 -0.620943
vn 0.434898 0.652145 -0.620944
vn 0.434897 0.652145 -0.620944
vn 0.434899 0.652144 -0.620943
vn 0.434901 0.652143 -0.620943
vn 0.434898 0.652145 -0.620943
vn 0.434899 0.652145 -0.620943
vn 0.434899 0.652145 -0.620943
vn 0.434900 0.652144 -0.620943
vn 0.434899 0.652144 -0.620943
vn 0.434898 0.652145 -0.620944
vn 0.434897 0.652145 -0.620944
vn 0.434896 0.652146 -0.620944
vn 0.434898 0.652145 -0.620943
vn 0.434899 0.652144 -0.620943
vn 0.434898 0.652145 -0.620943
vn 0.434899 0.652145 -0.620943
vn 0.434898 0.652145 -0.620943
vn 0.434899 0.652144 -0.620943
vn 0.434900 0.652144 -0.620944
vn 0.434898 0.652145 -0.620943
vn 0.434898 0.652145 -0.620943
vn 0.434899 0.652145 -0.620943
vn 0.434897 0.652146 -0.620943
vn 0.434898 0.652146 -0.620942
vn 0.434898 0.652145 -0.620943
vn 0.434899 0.652144 -0.620943
vn 0.434897 0.652145 -0.620944
vn 0.434898 0.652145 -0.620944
vn 0.434900 0.652144 -0.620943
vn 0.434899 0.652145 -0.620943
vn 0.434899 0.652145 -0.620943
vn 0.434901 0.652144 -0.620943
s 1
g polySurface734 polySurface7
usemtl lambert20SG
f 1/1/1 2/2/2 12/3/3 11/4/4
f 2/2/2 3/5/5 13/6/6 12/3/3
f 3/5/5 4/7/7 14/8/8 13/6/6
f 4/7/7 5/9/9 15/10/10 14/8/8
f 5/9/9 6/11/11 16/12/12 15/10/10
f 6/11/11 7/13/13 17/14/14 16/12/12
f 7/13/13 8/15/15 18/16/16 17/14/14
f 8/15/15 9/17/17 19/18/18 18/16/16
f 9/17/17 10/19/19 20/20/20 19/18/18
f 11/4/4 12/3/3 22/21/21 21/22/22
f 12/3/3 13/6/6 23/23/23 22/21/21
f 13/6/6 14/8/8 24/24/24 23/23/23
f 14/8/8 15/10/10 25/25/25 24/24/24
f 15/10/10 16/12/12 26/26/26 25/25/25
f 16/12/12 17/14/14 27/27/27 26/26/26
f 17/14/14 18/16/16 28/28/28 27/27/27
f 18/16/16 19/18/18 29/29/29 28/28/28
f 19/18/18 20/20/20 30/30/30 29/29/29
f 21/22/22 22/21/21 32/31/31 31/32/32
f 22/21/21 23/23/23 33/33/33 32/31/31
f 23/23/23 24/24/24 34/34/34 33/33/33
f 24/24/24 25/25/25 35/35/35 34/34/34
f 25/25/25 26/26/26 36/36/36 35/35/35
f 26/26/26 27/27/27 37/37/37 36/36/36
f 27/27/27 28/28/28 38/38/38 37/37/37
f 28/28/28 29/29/29 39/39/39 38/38/38
f 29/29/29 30/30/30 40/40/40 39/39/39
f 31/32/32 32/31/31 42/41/41 41/42/42
f 32/31/31 33/33/33 43/43/43 42/41/41
usemtl lambert21SG
f 33/33/33 34/34/34 44/44/44 43/43/43
f 34/34/34 35/35/35 45/45/45 44/44/44
usemtl lambert20SG
f 35/35/35 36/36/36 46/46/46 45/45/45
f 36/36/36 37/37/37 47/47/47 46/46/46
f 37/37/37 38/38/38 48/48/48 47/47/47
f 38/38/38 39/39/39 49/49/49 48/48/48
f 39/39/39 40/40/40 50/50/50 49/49/49
f 41/42/42 42/41/41 52/51/51 51/52/52
usemtl lambert21SG
f 42/41/41 43/43/43 53/53/53 52/51/51
f 43/43/43 44/44/44 54/54/54 53/53/53
f 44/44/44 45/45/45 55/55/55 54/54/54
f 45/45/45 46/46/46 56/56/56 55/55/55
f 46/46/46 47/47/47 57/57/57 56/56/56
usemtl lambert20SG
f 47/47/47 48/48/48 58/58/58 57/57/57
usemtl lambert21SG
f 48/48/48 49/49/49 59/59/59 58/58/58
f 49/49/49 50/50/50 60/60/60 59/59/59
f 51/52/52 52/51/51 62/61/61 61/62/62
f 52/51/51 53/53/53 63/63/63 62/61/61
f 53/53/53 54/54/54 64/64/64 63/63/63
f 54/54/54 55/55/55 65/65/65 64/64/64
f 55/55/55 56/56/56 66/66/66 65/65/65
f 56/56/56 57/57/57 67/67/67 66/66/66
f 57/57/57 58/58/58 68/68/68 67/67/67
f 58/58/58 59/59/59 69/69/69 68/68/68
f 59/59/59 60/60/60 70/70/70 69/69/69
f 61/62/62 62/61/61 72/71/71 71/72/72
f 62/61/61 63/63/63 73/73/73 72/71/71
f 63/63/63 64/64/64 74/74/74 73/73/73
f 64/64/64 65/65/65 75/75/75 74/74/74
f 65/65/65 66/66/66 76/76/76 75/75/75
f 66/66/66 67/67/67 77/77/77 76/76/76
f 67/67/67 68/68/68 78/78/78 77/77/77
f 68/68/68 69/69/69 79/79/79 78/78/78
f 69/69/69 70/70/70 80/80/80 79/79/79
usemtl lambert19SG
f 71/72/72 72/71/71 82/81/81 81/82/82
f 72/71/71 73/73/73 83/83/83 82/81/81
f 73/73/73 74/74/74 84/84/84 83/83/83
f 74/74/74 75/75/75 85/85/85 84/84/84
f 75/75/75 76/76/76 86/86/86 85/85/85
f 76/76/76 77/77/77 87/87/87 86/86/86
f 77/77/77 78/78/78 88/88/88 87/87/87
f 78/78/78 79/79/79 89/89/89 88/88/88
f 79/79/79 80/80/80 90/90/90 89/89/89
f 81/82/82 82/81/81 92/91/91 91/92/92
f 82/81/81 83/83/83 93/93/93 92/91/91
f 83/83/83 84/84/84 94/94/94 93/93/93
f 84/84/84 85/85/85 95/95/95 94/94/94
f 85/85/85 86/86/86 96/96/96 95/95/95
f 86/86/86 87/87/87 97/97/97 96/96/96
f 87/87/87 88/88/88 98/98/98 97/97/97
f 88/88/88 89/89/89 99/99/99 98/98/98
f 89/89/89 90/90/90 100/100/100 99/99/99
usemtl lambert23SG
f 91/92/92 92/91/91 102/101/101 101/102/102
f 92/91/91 93/93/93 103/103/103 102/101/101
f 93/93/93 94/94/94 104/104/104 103/103/103
usemtl lambert19SG
f 94/94/94 95/95/95 105/105/105 104/104/104
f 95/95/95 96/96/96 106/106/106 105/105/105
f 96/96/96 97/97/97 107/107/107 106/106/106
usemtl lambert23SG
f 97/97/97 98/98/98 108/108/108 107/107/107
f 98/98/98 99/99/99 109/109/109 108/108/108
usemtl lambert19SG
f 99/99/99 100/100/100 110/110/110 109/109/109
f 101/102/102 102/101/101 112/111/111 111/112/112
usemtl lambert23SG
f 102/101/101 103/103/103 113/113/113 112/111/111
usemtl lambert19SG
f 103/103/103 104/104/104 114/114/114 113/113/113
f 104/104/104 105/105/105 115/115/115 114/114/114
f 105/105/105 106/106/106 116/116/116 115/115/115
usemtl lambert23SG
f 106/106/106 107/107/107 117/117/117 116/116/116
f 107/107/107 108/108/108 118/118/118 117/117/117
usemtl lambert22SG
f 108/108/108 109/109/109 119/119/119 118/118/118
f 109/109/109 110/110/110 120/120/120 119/119/119
usemtl lambert19SG
f 111/112/112 112/111/111 122/121/121 121/122/122
f 112/111/111 113/113/113 123/123/123 122/121/121
f 113/113/113 114/114/114 124/124/124 123/123/123
f 114/114/114 115/115/115 125/125/125 124/124/124
f 115/115/115 116/116/116 126/126/126 125/125/125
f 116/116/116 117/117/117 127/127/127 126/126/126
f 117/117/117 118/118/118 128/128/128 127/127/127
usemtl lambert22SG
f 118/118/118 119/119/119 129/129/129 128/128/128
f 119/119/119 120/120/120 130/130/130 129/129/129
g default
v -12.599301 1.693856 11.896385
v -11.802758 3.539324 14.392469
v -9.029020 1.959172 14.675598
v -9.825563 0.113705 12.179515
v -12.632212 1.839839 11.641001
v -11.774514 3.826994 14.328722
v -8.787819 2.125525 14.633590
v -9.645518 0.138370 11.945868
v -12.893753 1.763708 11.525171
v -11.937103 3.980119 14.522973
v -8.605838 2.082354 14.863013
v -9.562488 -0.134056 11.865211
v -13.022483 1.570674 11.708970
v -12.065833 3.787084 14.706772
v -8.734568 1.889320 15.046812
v -9.691218 -0.327090 12.049010
v -12.840501 1.527503 11.938393
v -11.982803 3.514658 14.626115
v -8.996108 1.813189 14.930983
v -9.853807 -0.173966 12.243260
vt 0.250000 1.000000
vt 0.000000 1.000000
vt 0.000000 0.800000
vt 0.250000 0.800000
vt 0.500000 1.000000
vt 0.500000 0.800000
vt 0.750000 1.000000
vt 0.750000 0.800000
vt 1.000000 1.000000
vt 1.000000 0.800000
vt 0.000000 0.600000
vt 0.250000 0.600000
vt 0.500000 0.600000
vt 0.750000 0.600000
vt 1.000000 0.600000
vt 0.000000 0.400000
vt 0.250000 0.400000
vt 0.500000 0.400000
vt 0.750000 0.400000
vt 1.000000 0.400000
vt 0.000000 0.200000
vt 0.250000 0.200000
vt 0.500000 0.200000
vt 0.750000 0.200000
vt 1.000000 0.200000
vt 0.000000 0.000000
vt 0.250000 0.000000
vt 0.500000 0.000000
vt 0.750000 0.000000
vt 1.000000 0.000000
vn 0.968581 -0.140560 -0.205167
vn 0.968581 -0.140560 -0.205167
vn 0.968581 -0.140560 -0.205167
vn 0.968581 -0.140560 -0.205167
vn -0.022349 -0.214202 -0.976534
vn -0.022349 -0.214202 -0.976534
vn -0.022349 -0.214202 -0.976534
vn -0.022349 -0.214202 -0.976534
vn -0.571114 0.736576 -0.362332
vn -0.571114 0.736576 -0.362332
vn -0.571114 0.736576 -0.362332
vn -0.571114 0.736576 -0.362332
vn 0.419813 0.810215 0.409034
vn 0.419813 0.810215 0.409034
vn 0.419813 0.810215 0.409034
vn 0.419813 0.810215 0.409034
vn 0.033796 0.798448 -0.601115
vn 0.033796 0.798448 -0.601115
vn 0.033796 0.798447 -0.601115
vn 0.033796 0.798447 -0.601115
vn 0.498953 0.833014 -0.239026
vn 0.498953 0.833014 -0.239026
vn 0.498953 0.833014 -0.239026
vn 0.498953 0.833014 -0.239026
vn 0.756553 0.386707 -0.527339
vn 0.756553 0.386707 -0.527339
vn 0.756553 0.386707 -0.527339
vn 0.756553 0.386707 -0.527339
vn 0.291398 0.352143 -0.889428
vn 0.291398 0.352143 -0.889428
vn 0.291398 0.352143 -0.889428
vn 0.291398 0.352143 -0.889428
vn -0.865498 0.493060 -0.088346
vn -0.865498 0.493060 -0.088346
vn -0.865498 0.493060 -0.088346
vn -0.865498 0.493060 -0.088346
vn 0.248547 0.575847 0.778861
vn 0.248547 0.575847 0.778861
vn 0.248547 0.575847 0.778861
vn 0.248547 0.575847 0.778861
vn 0.865497 -0.493061 0.088346
vn 0.865497 -0.493061 0.088346
vn 0.865497 -0.493061 0.088346
vn 0.865497 -0.493061 0.088346
vn -0.248548 -0.575847 -0.778861
vn -0.248548 -0.575847 -0.778861
vn -0.248548 -0.575847 -0.778861
vn -0.248548 -0.575847 -0.778861
vn -0.756551 -0.386708 0.527340
vn -0.756551 -0.386708 0.527340
vn -0.756551 -0.386708 0.527340
vn -0.756551 -0.386708 0.527340
vn -0.291398 -0.352144 0.889428
vn -0.291398 -0.352144 0.889428
vn -0.291398 -0.352144 0.889428
vn -0.291398 -0.352144 0.889428
vn -0.033797 -0.798448 0.601115
vn -0.033797 -0.798448 0.601115
vn -0.033797 -0.798448 0.601115
vn -0.033797 -0.798448 0.601115
vn -0.498952 -0.833015 0.239026
vn -0.498952 -0.833015 0.239026
vn -0.498952 -0.833015 0.239026
vn -0.498952 -0.833015 0.239026
vn 0.571112 -0.736578 0.362332
vn 0.571112 -0.736578 0.362332
vn 0.571112 -0.736578 0.362332
vn 0.571112 -0.736577 0.362332
vn -0.419813 -0.810214 -0.409036
vn -0.419813 -0.810214 -0.409036
vn -0.419813 -0.810214 -0.409036
vn -0.419813 -0.810214 -0.409036
vn -0.968581 0.140560 0.205168
vn -0.968581 0.140560 0.205168
vn -0.968581 0.140560 0.205168
vn -0.968581 0.140560 0.205168
vn 0.022343 0.214198 0.976535
vn 0.022343 0.214198 0.976535
vn 0.022343 0.214198 0.976535
vn 0.022343 0.214198 0.976535
s off
g polySurface7 polySurface735
usemtl lambert25SG
f 132/131/131 131/132/132 135/133/133 136/134/134
f 133/135/135 132/131/136 136/134/137 137/136/138
f 134/137/139 133/135/140 137/136/141 138/138/142
f 131/139/143 134/137/144 138/138/145 135/140/146
f 136/134/147 135/133/148 139/141/149 140/142/150
f 137/136/151 136/134/152 140/142/153 141/143/154
f 138/138/155 137/136/156 141/143/157 142/144/158
f 135/140/159 138/138/160 142/144/161 139/145/162
f 140/142/163 139/141/164 143/146/165 144/147/166
f 141/143/167 140/142/168 144/147/169 145/148/170
f 142/144/171 141/143/172 145/148/173 146/149/174
f 139/145/175 142/144/176 146/149/177 143/150/178
f 144/147/179 143/146/180 147/151/181 148/152/182
f 145/148/183 144/147/184 148/152/185 149/153/186
f 146/149/187 145/148/188 149/153/189 150/154/190
f 143/150/191 146/149/192 150/154/193 147/155/194
f 148/152/195 147/151/196 131/156/197 132/157/198
f 149/153/199 148/152/200 132/157/201 133/158/202
f 150/154/203 149/153/204 133/158/205 134/159/206
f 147/155/207 150/154/208 134/159/209 131/160/210
