# This file uses centimeters as units for non-parametric coordinates.

mtllib bottle2.mtl
g default
v 2.625531 -1.919775 19.453637
v 2.663157 -1.738519 19.501077
v 2.737633 -1.626503 19.636818
v 2.820512 -1.626515 19.809013
v 2.880136 -1.738548 19.951888
v 2.893732 -1.919810 20.010870
v 2.856107 -2.101066 19.963432
v 2.781631 -2.213082 19.827690
v 2.698752 -2.213071 19.655495
v 2.639127 -2.101037 19.512620
v 2.677136 -1.931986 19.177587
v 2.742306 -1.618041 19.259755
v 2.854487 -1.422652 19.502960
v 2.998037 -1.422672 19.801210
v 3.101310 -1.616718 20.048677
v 3.124859 -1.930675 20.150838
v 3.059689 -2.244618 20.068670
v 2.930693 -2.438635 19.833559
v 2.787142 -2.438616 19.535309
v 2.683869 -2.244569 19.287842
v 2.902253 -1.953285 18.977285
v 2.977505 -1.590774 19.072164
v 3.126458 -1.366742 19.343647
v 3.292215 -1.366764 19.688036
v 3.411465 -1.590831 19.973787
v 3.438657 -1.953356 20.091752
v 3.363405 -2.315867 19.996873
v 3.214453 -2.539899 19.725389
v 3.048695 -2.539877 19.381001
v 2.929445 -2.315811 19.095250
v 3.457985 -1.998639 18.709803
v 3.533237 -1.636128 18.804682
v 3.682189 -1.412096 19.076165
v 3.847947 -1.412118 19.420554
v 3.967197 -1.636185 19.706305
v 3.994389 -1.998710 19.824270
v 3.919137 -2.361221 19.729391
v 3.770185 -2.585253 19.457908
v 3.604427 -2.585231 19.113519
v 3.485177 -2.361165 18.827768
v 4.013717 -2.043993 18.442321
v 4.088968 -1.681482 18.537200
v 4.237921 -1.457450 18.808683
v 4.403678 -1.457472 19.153072
v 4.522928 -1.681539 19.438823
v 4.550120 -2.044064 19.556788
v 4.474869 -2.406575 19.461909
v 4.325916 -2.630607 19.190426
v 4.160159 -2.630585 18.846037
v 4.040909 -2.406519 18.560286
v 4.327515 -2.066675 18.383235
v 4.392685 -1.752731 18.465403
v 4.521682 -1.558714 18.700515
v 4.665232 -1.558734 18.998764
v 4.768505 -1.752780 19.246231
v 4.792054 -2.066737 19.348392
v 4.726884 -2.380680 19.266224
v 4.597888 -2.574697 19.031113
v 4.454337 -2.574678 18.732863
v 4.351064 -2.380631 18.485396
v 4.629096 -2.083289 18.489292
v 4.666721 -1.902032 18.536731
v 4.741198 -1.790017 18.672473
v 4.824076 -1.790028 18.844667
v 4.883701 -1.902062 18.987542
v 4.897297 -2.083324 19.046525
v 4.859672 -2.264580 18.999086
v 4.785196 -2.376595 18.863345
v 4.702316 -2.376584 18.691149
v 4.642692 -2.264551 18.548274
v 2.740899 -1.918264 19.741270
v 4.837650 -2.089383 18.732073
v 4.636320 -2.113474 18.509402
v 4.656274 -1.965842 18.525828
v 4.704880 -1.849686 18.607118
v 4.769114 -1.796127 18.731490
v 4.831763 -1.819518 18.865620
v 4.876043 -1.913591 18.973568
v 4.890087 -2.053140 19.026408
v 4.870132 -2.200771 19.009982
v 4.821527 -2.316929 18.928693
v 4.757293 -2.370487 18.804320
v 4.694643 -2.347095 18.670189
v 4.650364 -2.253023 18.562242
v 4.984174 -2.141863 18.341975
v 5.004128 -1.994231 18.358400
v 5.052734 -1.878074 18.439690
v 5.116967 -1.824516 18.564063
v 5.179617 -1.847907 18.698193
v 5.223897 -1.941980 18.806141
v 5.237940 -2.081528 18.858981
v 5.217986 -2.229160 18.842555
v 5.169381 -2.345318 18.761266
v 5.105147 -2.398875 18.636893
v 5.042497 -2.375484 18.502762
v 4.998218 -2.281411 18.394815
v 4.763203 -2.083307 18.767905
v 5.111057 -2.111696 18.600478
v 4.896087 -2.126170 18.451436
v 4.911854 -2.009519 18.464414
v 4.950260 -1.917738 18.528645
v 5.001014 -1.875419 18.626918
v 5.050516 -1.893902 18.732901
v 5.085503 -1.968234 18.818195
v 5.096600 -2.078497 18.859947
v 5.080833 -2.195148 18.846968
v 5.042428 -2.286929 18.782737
v 4.991674 -2.329248 18.684464
v 4.942171 -2.310765 18.578482
v 4.907184 -2.236434 18.493187
v 5.084331 -2.141533 18.360832
v 5.100098 -2.024882 18.373810
v 5.138503 -1.933101 18.438041
v 5.189257 -1.890782 18.536313
v 5.238760 -1.909265 18.642296
v 5.273747 -1.983596 18.727590
v 5.284844 -2.093860 18.769342
v 5.269077 -2.210511 18.756364
v 5.230671 -2.302292 18.692132
v 5.179918 -2.344611 18.593860
v 5.130415 -2.326128 18.487877
v 5.095428 -2.251797 18.402583
v 4.996344 -2.102334 18.655691
v 5.184587 -2.117697 18.565087
vt 0.542136 0.125636
vt 0.516095 0.106716
vt 0.532189 0.057182
vt 0.584273 0.095022
vt 0.483905 0.106716
vt 0.467811 0.057182
vt 0.457864 0.125636
vt 0.415727 0.095022
vt 0.447917 0.156250
vt 0.395833 0.156250
vt 0.457864 0.186864
vt 0.415727 0.217478
vt 0.483905 0.205784
vt 0.467811 0.255318
vt 0.516095 0.205784
vt 0.532189 0.255318
vt 0.542136 0.186864
vt 0.584273 0.217478
vt 0.552083 0.156250
vt 0.604167 0.156250
vt 0.548284 0.007647
vt 0.626409 0.064409
vt 0.451716 0.007647
vt 0.373591 0.064409
vt 0.343750 0.156250
vt 0.373591 0.248091
vt 0.451716 0.304853
vt 0.548284 0.304853
vt 0.626409 0.248091
vt 0.656250 0.156250
vt 0.375000 0.312500
vt 0.400000 0.312500
vt 0.400000 0.500470
vt 0.375000 0.500470
vt 0.425000 0.312500
vt 0.425000 0.500470
vt 0.450000 0.312500
vt 0.450000 0.500470
vt 0.475000 0.312500
vt 0.475000 0.500470
vt 0.500000 0.312500
vt 0.500000 0.500470
vt 0.525000 0.312500
vt 0.525000 0.500470
vt 0.550000 0.312500
vt 0.550000 0.500470
vt 0.575000 0.312500
vt 0.575000 0.500470
vt 0.600000 0.312500
vt 0.600000 0.500470
vt 0.625000 0.312500
vt 0.625000 0.500470
vt 0.400000 0.688440
vt 0.375000 0.688440
vt 0.425000 0.688440
vt 0.450000 0.688440
vt 0.475000 0.688440
vt 0.500000 0.688440
vt 0.525000 0.688440
vt 0.550000 0.688440
vt 0.575000 0.688440
vt 0.600000 0.688440
vt 0.625000 0.688440
vt 0.626409 0.935591
vt 0.548284 0.992353
vt 0.532189 0.942818
vt 0.584273 0.904978
vt 0.451716 0.992353
vt 0.467811 0.942818
vt 0.373591 0.935591
vt 0.415727 0.904978
vt 0.343750 0.843750
vt 0.395833 0.843750
vt 0.373591 0.751909
vt 0.415727 0.782522
vt 0.451716 0.695147
vt 0.467811 0.744682
vt 0.548284 0.695147
vt 0.532189 0.744682
vt 0.626409 0.751909
vt 0.584273 0.782522
vt 0.656250 0.843750
vt 0.604167 0.843750
vt 0.516095 0.893284
vt 0.542136 0.874364
vt 0.483905 0.893284
vt 0.457864 0.874364
vt 0.447917 0.843750
vt 0.457864 0.813136
vt 0.483905 0.794216
vt 0.516095 0.794216
vt 0.542136 0.813136
vt 0.552083 0.843750
vt 0.500000 0.150000
vt 0.500000 0.837500
vt 0.375000 0.312500
vt 0.395833 0.312500
vt 0.395833 0.688440
vt 0.375000 0.688440
vt 0.416667 0.312500
vt 0.416667 0.688440
vt 0.437500 0.312500
vt 0.437500 0.688440
vt 0.458333 0.312500
vt 0.458333 0.688440
vt 0.479167 0.312500
vt 0.479167 0.688440
vt 0.500000 0.312500
vt 0.500000 0.688440
vt 0.520833 0.312500
vt 0.520833 0.688440
vt 0.541667 0.312500
vt 0.541667 0.688440
vt 0.562500 0.312500
vt 0.562500 0.688440
vt 0.583333 0.312500
vt 0.583333 0.688440
vt 0.604167 0.312500
vt 0.604167 0.688440
vt 0.625000 0.312500
vt 0.625000 0.688440
vt 0.578125 0.020934
vt 0.635316 0.078125
vt 0.500000 0.150000
vt 0.500000 0.000000
vt 0.421875 0.020934
vt 0.364684 0.078125
vt 0.343750 0.156250
vt 0.364684 0.234375
vt 0.421875 0.291566
vt 0.500000 0.312500
vt 0.578125 0.291566
vt 0.635316 0.234375
vt 0.656250 0.156250
vt 0.635316 0.921875
vt 0.578125 0.979066
vt 0.500000 0.837500
vt 0.500000 1.000000
vt 0.421875 0.979066
vt 0.364684 0.921875
vt 0.343750 0.843750
vt 0.364684 0.765625
vt 0.421875 0.708434
vt 0.500000 0.687500
vt 0.578125 0.708434
vt 0.635316 0.765625
vt 0.656250 0.843750
vt 0.375000 0.312500
vt 0.395833 0.312500
vt 0.395833 0.688440
vt 0.375000 0.688440
vt 0.416667 0.312500
vt 0.416667 0.688440
vt 0.437500 0.312500
vt 0.437500 0.688440
vt 0.458333 0.312500
vt 0.458333 0.688440
vt 0.479167 0.312500
vt 0.479167 0.688440
vt 0.500000 0.312500
vt 0.500000 0.688440
vt 0.520833 0.312500
vt 0.520833 0.688440
vt 0.541667 0.312500
vt 0.541667 0.688440
vt 0.562500 0.312500
vt 0.562500 0.688440
vt 0.583333 0.312500
vt 0.583333 0.688440
vt 0.604167 0.312500
vt 0.604167 0.688440
vt 0.625000 0.312500
vt 0.625000 0.688440
vt 0.578125 0.020934
vt 0.635316 0.078125
vt 0.500000 0.150000
vt 0.500000 0.000000
vt 0.421875 0.020934
vt 0.364684 0.078125
vt 0.343750 0.156250
vt 0.364684 0.234375
vt 0.421875 0.291566
vt 0.500000 0.312500
vt 0.578125 0.291566
vt 0.635316 0.234375
vt 0.656250 0.156250
vt 0.635316 0.921875
vt 0.578125 0.979066
vt 0.500000 0.837500
vt 0.500000 1.000000
vt 0.421875 0.979066
vt 0.364684 0.921875
vt 0.343750 0.843750
vt 0.364684 0.765625
vt 0.421875 0.708434
vt 0.500000 0.687500
vt 0.578125 0.708434
vt 0.635316 0.765625
vt 0.656250 0.843750
vn -0.995115 0.079597 -0.058403
vn -0.941983 0.335552 0.008587
vn -0.704406 0.547509 -0.451715
vn -0.810127 0.038222 -0.585008
vn -0.838147 0.494670 0.229807
vn -0.498238 0.864700 -0.063661
vn -0.713912 0.492299 0.497967
vn -0.255305 0.868732 0.424409
vn -0.627140 0.329258 0.705892
vn -0.085797 0.550229 0.830594
vn -0.607353 0.065470 0.791730
vn -0.047144 0.034911 0.998278
vn -0.662110 -0.198311 0.722691
vn -0.154111 -0.480389 0.863410
vn -0.770496 -0.361328 0.525146
vn -0.365842 -0.798842 0.477506
vn -0.891109 -0.361311 0.274552
vn -0.601463 -0.798810 -0.012033
vn -0.980384 -0.190526 0.050473
vn -0.776345 -0.475019 -0.414301
vn -0.385264 0.590703 -0.708972
vn -0.506712 0.005650 -0.862097
vn -0.144703 0.951479 -0.271566
vn 0.122585 0.951298 0.282853
vn 0.314766 0.590195 0.743366
vn 0.358589 0.005953 0.933477
vn 0.237314 -0.578267 0.780570
vn -0.002735 -0.939313 0.343051
vn -0.269869 -0.939278 -0.211963
vn -0.462307 -0.578515 -0.672007
vn -0.392035 0.308240 -0.866774
vn -0.392035 0.308240 -0.866774
vn -0.201435 0.806872 -0.555321
vn -0.201435 0.806872 -0.555321
vn 0.066107 0.997307 -0.031756
vn 0.066107 0.997307 -0.031756
vn 0.308399 0.806805 0.503941
vn 0.308399 0.806805 0.503941
vn 0.432892 0.308130 0.847148
vn 0.432892 0.308130 0.847148
vn 0.392035 -0.308239 0.866774
vn 0.392035 -0.308239 0.866774
vn 0.201435 -0.806872 0.555321
vn 0.201435 -0.806872 0.555321
vn -0.066108 -0.997307 0.031755
vn -0.066108 -0.997307 0.031755
vn -0.308398 -0.806805 -0.503940
vn -0.308398 -0.806805 -0.503940
vn -0.432892 -0.308130 -0.847148
vn -0.432892 -0.308130 -0.847148
vn -0.237314 0.578267 -0.780570
vn -0.358589 -0.005953 -0.933477
vn 0.002735 0.939313 -0.343052
vn 0.269869 0.939278 0.211963
vn 0.462052 0.578175 0.672475
vn 0.505873 -0.006067 0.862586
vn 0.384597 -0.590287 0.709680
vn 0.144548 -0.951333 0.272162
vn -0.122585 -0.951298 -0.282853
vn -0.314766 -0.590195 -0.743366
vn 0.116045 0.493896 -0.861742
vn 0.006821 -0.032276 -0.999456
vn 0.332244 0.819071 -0.467693
vn 0.572837 0.819038 0.032175
vn 0.745924 0.493814 0.446930
vn 0.785391 -0.032377 0.618152
vn 0.676165 -0.558550 0.480439
vn 0.459967 -0.883723 0.086392
vn 0.219376 -0.883691 -0.413478
vn 0.046291 -0.558467 -0.828234
vn 0.502570 0.311600 -0.806430
vn 0.426057 -0.056991 -0.902900
vn 0.654021 0.539388 -0.530393
vn 0.822559 0.539365 -0.180228
vn 0.943808 0.311542 0.110312
vn 0.971456 -0.057060 0.230256
vn 0.894943 -0.425651 0.133786
vn 0.743492 -0.653441 -0.142251
vn 0.574955 -0.653417 -0.492415
vn 0.453706 -0.425594 -0.782956
vn -0.898634 0.073339 0.432526
vn 0.898634 -0.073339 -0.432526
vn -0.418009 0.156071 -0.894936
vn -0.418009 0.156071 -0.894936
vn -0.418009 0.156071 -0.894936
vn -0.418009 0.156071 -0.894936
vn -0.295437 0.627671 -0.720241
vn -0.295437 0.627671 -0.720241
vn -0.295437 0.627671 -0.720241
vn -0.295437 0.627671 -0.720241
vn -0.093704 0.931087 -0.352558
vn -0.093704 0.931087 -0.352558
vn -0.093704 0.931087 -0.352558
vn -0.093704 0.931087 -0.352558
vn 0.133137 0.985020 0.109592
vn 0.133137 0.985020 0.109592
vn 0.133137 0.985020 0.109592
vn 0.133137 0.985020 0.109592
vn 0.324304 0.775020 0.542375
vn 0.324304 0.775020 0.542375
vn 0.324304 0.775020 0.542375
vn 0.324304 0.775020 0.542375
vn 0.428576 0.357345 0.829836
vn 0.428576 0.357345 0.829836
vn 0.428576 0.357345 0.829836
vn 0.428576 0.357345 0.829836
vn 0.418009 -0.156068 0.894936
vn 0.418009 -0.156068 0.894936
vn 0.418009 -0.156068 0.894936
vn 0.418009 -0.156068 0.894936
vn 0.295439 -0.627667 0.720243
vn 0.295439 -0.627667 0.720243
vn 0.295439 -0.627667 0.720243
vn 0.295439 -0.627667 0.720243
vn 0.093703 -0.931088 0.352555
vn 0.093703 -0.931088 0.352555
vn 0.093703 -0.931088 0.352555
vn 0.093703 -0.931088 0.352555
vn -0.133138 -0.985019 -0.109595
vn -0.133138 -0.985019 -0.109595
vn -0.133138 -0.985019 -0.109595
vn -0.133138 -0.985019 -0.109595
vn -0.324304 -0.775020 -0.542375
vn -0.324304 -0.775020 -0.542375
vn -0.324304 -0.775020 -0.542375
vn -0.324304 -0.775020 -0.542375
vn -0.428576 -0.357345 -0.829836
vn -0.428576 -0.357345 -0.829836
vn -0.428576 -0.357345 -0.829836
vn -0.428576 -0.357345 -0.829836
vn -0.898634 0.073339 0.432526
vn -0.898634 0.073339 0.432526
vn -0.898634 0.073339 0.432526
vn -0.898634 0.073339 0.432526
vn -0.898634 0.073339 0.432526
vn -0.898634 0.073339 0.432526
vn -0.898634 0.073339 0.432526
vn -0.898634 0.073339 0.432526
vn -0.898634 0.073339 0.432526
vn -0.898634 0.073339 0.432526
vn -0.898634 0.073339 0.432526
vn -0.898634 0.073339 0.432526
vn -0.898634 0.073339 0.432526
vn 0.898634 -0.073339 -0.432526
vn 0.898634 -0.073339 -0.432526
vn 0.898634 -0.073339 -0.432526
vn 0.898634 -0.073339 -0.432526
vn 0.898634 -0.073339 -0.432526
vn 0.898634 -0.073339 -0.432526
vn 0.898634 -0.073339 -0.432526
vn 0.898634 -0.073339 -0.432526
vn 0.898634 -0.073339 -0.432526
vn 0.898634 -0.073339 -0.432526
vn 0.898634 -0.073339 -0.432526
vn 0.898634 -0.073339 -0.432526
vn 0.898634 -0.073339 -0.432526
vn -0.418010 0.156063 -0.894937
vn -0.418010 0.156063 -0.894937
vn -0.418010 0.156063 -0.894937
vn -0.418010 0.156063 -0.894937
vn -0.295436 0.627674 -0.720238
vn -0.295436 0.627674 -0.720238
vn -0.295436 0.627674 -0.720238
vn -0.295436 0.627674 -0.720238
vn -0.093706 0.931085 -0.352561
vn -0.093706 0.931085 -0.352561
vn -0.093706 0.931085 -0.352561
vn -0.093706 0.931085 -0.352561
vn 0.133138 0.985020 0.109594
vn 0.133138 0.985020 0.109594
vn 0.133138 0.985020 0.109594
vn 0.133138 0.985020 0.109594
vn 0.324306 0.775015 0.542381
vn 0.324306 0.775015 0.542381
vn 0.324306 0.775015 0.542381
vn 0.324306 0.775015 0.542381
vn 0.428575 0.357353 0.829833
vn 0.428575 0.357353 0.829833
vn 0.428575 0.357353 0.829833
vn 0.428575 0.357353 0.829833
vn 0.418009 -0.156069 0.894936
vn 0.418009 -0.156069 0.894936
vn 0.418009 -0.156069 0.894936
vn 0.418009 -0.156069 0.894936
vn 0.295436 -0.627674 0.720238
vn 0.295436 -0.627674 0.720238
vn 0.295436 -0.627674 0.720238
vn 0.295436 -0.627674 0.720238
vn 0.093706 -0.931085 0.352561
vn 0.093706 -0.931085 0.352561
vn 0.093706 -0.931085 0.352561
vn 0.093706 -0.931085 0.352561
vn -0.133140 -0.985019 -0.109599
vn -0.133140 -0.985019 -0.109599
vn -0.133140 -0.985019 -0.109599
vn -0.133140 -0.985019 -0.109599
vn -0.324304 -0.775020 -0.542376
vn -0.324304 -0.775020 -0.542376
vn -0.324304 -0.775020 -0.542376
vn -0.324304 -0.775020 -0.542376
vn -0.428576 -0.357346 -0.829836
vn -0.428576 -0.357346 -0.829836
vn -0.428576 -0.357346 -0.829836
vn -0.428576 -0.357346 -0.829836
vn -0.898634 0.073338 0.432526
vn -0.898634 0.073338 0.432526
vn -0.898634 0.073338 0.432526
vn -0.898634 0.073339 0.432526
vn -0.898633 0.073337 0.432527
vn -0.898634 0.073339 0.432526
vn -0.898634 0.073339 0.432526
vn -0.898634 0.073338 0.432526
vn -0.898634 0.073340 0.432525
vn -0.898634 0.073339 0.432526
vn -0.898634 0.073339 0.432526
vn -0.898634 0.073339 0.432526
vn -0.898634 0.073339 0.432526
vn 0.898634 -0.073339 -0.432526
vn 0.898634 -0.073341 -0.432525
vn 0.898634 -0.073339 -0.432526
vn 0.898634 -0.073339 -0.432526
vn 0.898634 -0.073340 -0.432525
vn 0.898634 -0.073338 -0.432526
vn 0.898634 -0.073339 -0.432526
vn 0.898634 -0.073341 -0.432525
vn 0.898634 -0.073339 -0.432526
vn 0.898634 -0.073339 -0.432526
vn 0.898634 -0.073338 -0.432526
vn 0.898634 -0.073340 -0.432525
vn 0.898634 -0.073339 -0.432526
s 1
g polySurface516
usemtl anisotropic3SG
f 1/1/1 2/2/2 12/3/3 11/4/4
f 2/2/2 3/5/5 13/6/6 12/3/3
f 3/5/5 4/7/7 14/8/8 13/6/6
f 4/7/7 5/9/9 15/10/10 14/8/8
f 5/9/9 6/11/11 16/12/12 15/10/10
f 6/11/11 7/13/13 17/14/14 16/12/12
f 7/13/13 8/15/15 18/16/16 17/14/14
f 8/15/15 9/17/17 19/18/18 18/16/16
f 9/17/17 10/19/19 20/20/20 19/18/18
f 10/19/19 1/1/1 11/4/4 20/20/20
f 11/4/4 12/3/3 22/21/21 21/22/22
f 12/3/3 13/6/6 23/23/23 22/21/21
f 13/6/6 14/8/8 24/24/24 23/23/23
f 14/8/8 15/10/10 25/25/25 24/24/24
f 15/10/10 16/12/12 26/26/26 25/25/25
f 16/12/12 17/14/14 27/27/27 26/26/26
f 17/14/14 18/16/16 28/28/28 27/27/27
f 18/16/16 19/18/18 29/29/29 28/28/28
f 19/18/18 20/20/20 30/30/30 29/29/29
f 20/20/20 11/4/4 21/22/22 30/30/30
f 21/31/22 22/32/21 32/33/31 31/34/32
f 22/32/21 23/35/23 33/36/33 32/33/34
f 23/35/23 24/37/24 34/38/35 33/36/36
f 24/37/24 25/39/25 35/40/37 34/38/38
f 25/39/25 26/41/26 36/42/39 35/40/40
f 26/41/26 27/43/27 37/44/41 36/42/42
f 27/43/27 28/45/28 38/46/43 37/44/44
f 28/45/28 29/47/29 39/48/45 38/46/46
f 29/47/29 30/49/30 40/50/47 39/48/48
f 30/49/30 21/51/22 31/52/49 40/50/50
usemtl phong3SG
f 31/34/32 32/33/31 42/53/51 41/54/52
f 32/33/34 33/36/33 43/55/53 42/53/51
f 33/36/36 34/38/35 44/56/54 43/55/53
f 34/38/38 35/40/37 45/57/55 44/56/54
f 35/40/40 36/42/39 46/58/56 45/57/55
f 36/42/42 37/44/41 47/59/57 46/58/56
f 37/44/44 38/46/43 48/60/58 47/59/57
f 38/46/46 39/48/45 49/61/59 48/60/58
f 39/48/48 40/50/47 50/62/60 49/61/59
f 40/50/50 31/52/49 41/63/52 50/62/60
usemtl anisotropic3SG
f 41/64/52 42/65/51 52/66/61 51/67/62
f 42/65/51 43/68/53 53/69/63 52/66/61
f 43/68/53 44/70/54 54/71/64 53/69/63
f 44/70/54 45/72/55 55/73/65 54/71/64
f 45/72/55 46/74/56 56/75/66 55/73/65
f 46/74/56 47/76/57 57/77/67 56/75/66
f 47/76/57 48/78/58 58/79/68 57/77/67
f 48/78/58 49/80/59 59/81/69 58/79/68
f 49/80/59 50/82/60 60/83/70 59/81/69
f 50/82/60 41/64/52 51/67/62 60/83/70
f 51/67/62 52/66/61 62/84/71 61/85/72
f 52/66/61 53/69/63 63/86/73 62/84/71
f 53/69/63 54/71/64 64/87/74 63/86/73
f 54/71/64 55/73/65 65/88/75 64/87/74
f 55/73/65 56/75/66 66/89/76 65/88/75
f 56/75/66 57/77/67 67/90/77 66/89/76
f 57/77/67 58/79/68 68/91/78 67/90/77
f 58/79/68 59/81/69 69/92/79 68/91/78
f 59/81/69 60/83/70 70/93/80 69/92/79
f 60/83/70 51/67/62 61/85/72 70/93/80
f 2/2/2 1/1/1 71/94/81
f 3/5/5 2/2/2 71/94/81
f 4/7/7 3/5/5 71/94/81
f 5/9/9 4/7/7 71/94/81
f 6/11/11 5/9/9 71/94/81
f 7/13/13 6/11/11 71/94/81
f 8/15/15 7/13/13 71/94/81
f 9/17/17 8/15/15 71/94/81
f 10/19/19 9/17/17 71/94/81
f 1/1/1 10/19/19 71/94/81
f 61/85/72 62/84/71 72/95/82
f 62/84/71 63/86/73 72/95/82
usemtl phong3SG
f 63/86/73 64/87/74 72/95/82
f 64/87/74 65/88/75 72/95/82
f 65/88/75 66/89/76 72/95/82
usemtl anisotropic3SG
f 66/89/76 67/90/77 72/95/82
f 67/90/77 68/91/78 72/95/82
f 68/91/78 69/92/79 72/95/82
f 69/92/79 70/93/80 72/95/82
f 70/93/80 61/85/72 72/95/82
s off
usemtl phong3SG
f 73/96/83 74/97/84 86/98/85 85/99/86
f 74/97/87 75/100/88 87/101/89 86/98/90
f 75/100/91 76/102/92 88/103/93 87/101/94
f 76/102/95 77/104/96 89/105/97 88/103/98
f 77/104/99 78/106/100 90/107/101 89/105/102
f 78/106/103 79/108/104 91/109/105 90/107/106
f 79/108/107 80/110/108 92/111/109 91/109/110
f 80/110/111 81/112/112 93/113/113 92/111/114
f 81/112/115 82/114/116 94/115/117 93/113/118
f 82/114/119 83/116/120 95/117/121 94/115/122
f 83/116/123 84/118/124 96/119/125 95/117/126
f 84/118/127 73/120/128 85/121/129 96/119/130
s 2
usemtl anisotropic3SG
f 74/122/131 73/123/132 97/124/133
f 75/125/134 74/122/131 97/124/133
f 76/126/135 75/125/134 97/124/133
usemtl phong3SG
f 77/127/136 76/126/135 97/124/133
f 78/128/137 77/127/136 97/124/133
f 79/129/138 78/128/137 97/124/133
usemtl anisotropic3SG
f 80/130/139 79/129/138 97/124/133
f 81/131/140 80/130/139 97/124/133
f 82/132/141 81/131/140 97/124/133
f 83/133/142 82/132/141 97/124/133
f 84/134/143 83/133/142 97/124/133
f 73/123/132 84/134/143 97/124/133
s 3
usemtl phong3SG
f 85/135/144 86/136/145 98/137/146
f 86/136/145 87/138/147 98/137/146
f 87/138/147 88/139/148 98/137/146
f 88/139/148 89/140/149 98/137/146
f 89/140/149 90/141/150 98/137/146
f 90/141/150 91/142/151 98/137/146
f 91/142/151 92/143/152 98/137/146
f 92/143/152 93/144/153 98/137/146
f 93/144/153 94/145/154 98/137/146
f 94/145/154 95/146/155 98/137/146
f 95/146/155 96/147/156 98/137/146
f 96/147/156 85/135/144 98/137/146
s off
f 99/148/157 100/149/158 112/150/159 111/151/160
f 100/149/161 101/152/162 113/153/163 112/150/164
f 101/152/165 102/154/166 114/155/167 113/153/168
f 102/154/169 103/156/170 115/157/171 114/155/172
f 103/156/173 104/158/174 116/159/175 115/157/176
f 104/158/177 105/160/178 117/161/179 116/159/180
f 105/160/181 106/162/182 118/163/183 117/161/184
f 106/162/185 107/164/186 119/165/187 118/163/188
f 107/164/189 108/166/190 120/167/191 119/165/192
f 108/166/193 109/168/194 121/169/195 120/167/196
f 109/168/197 110/170/198 122/171/199 121/169/200
f 110/170/201 99/172/202 111/173/203 122/171/204
s 4
f 100/174/205 99/175/206 123/176/207
f 101/177/208 100/174/205 123/176/207
f 102/178/209 101/177/208 123/176/207
f 103/179/210 102/178/209 123/176/207
f 104/180/211 103/179/210 123/176/207
f 105/181/212 104/180/211 123/176/207
f 106/182/213 105/181/212 123/176/207
f 107/183/214 106/182/213 123/176/207
f 108/184/215 107/183/214 123/176/207
f 109/185/216 108/184/215 123/176/207
f 110/186/217 109/185/216 123/176/207
f 99/175/206 110/186/217 123/176/207
s 5
f 111/187/218 112/188/219 124/189/220
f 112/188/219 113/190/221 124/189/220
f 113/190/221 114/191/222 124/189/220
f 114/191/222 115/192/223 124/189/220
f 115/192/223 116/193/224 124/189/220
f 116/193/224 117/194/225 124/189/220
f 117/194/225 118/195/226 124/189/220
f 118/195/226 119/196/227 124/189/220
f 119/196/227 120/197/228 124/189/220
f 120/197/228 121/198/229 124/189/220
f 121/198/229 122/199/230 124/189/220
f 122/199/230 111/187/218 124/189/220
